<svg xmlns="http://www.w3.org/2000/svg" width="2698" height="920" viewBox="0 0 2698 920">
<defs>
  <marker id="arrowhead" markerWidth="10" markerHeight="7" refX="10" refY="3.5" orient="auto">
    <polygon points="0 0, 10 3.5, 0 7" fill="#333" />
  </marker>
</defs>
<rect width="2698" height="920" fill="#fff" />
<rect x="80.0" y="60" width="2558.0" height="300.0" fill="#f9f9f9" stroke="#ccc" stroke-width="1" />
<text x="94.0" y="210.0" text-anchor="middle" font-size="11" fill="#666" transform="rotate(-90 94.0 210.0)">lane_____________________</text>
<rect x="80.0" y="360.0" width="2558.0" height="300.0" fill="#f9f9f9" stroke="#ccc" stroke-width="1" />
<text x="94.0" y="510.0" text-anchor="middle" font-size="11" fill="#666" transform="rotate(-90 94.0 510.0)">lane___________________________</text>
<rect x="80.0" y="660.0" width="2558.0" height="200.0" fill="#f9f9f9" stroke="#ccc" stroke-width="1" />
<text x="94.0" y="760.0" text-anchor="middle" font-size="11" fill="#666" transform="rotate(-90 94.0 760.0)">lane______________________</text>
<polyline points="198.0,160.0 320.0,160.0" fill="none" stroke="#333" stroke-width="1.5" marker-end="url(#arrowhead)" />
<polyline points="440.0,160.0 555.0,160.0" fill="none" stroke="#333" stroke-width="1.5" marker-end="url(#arrowhead)" />
<polyline points="605.0,160.0 662.5,160.0 662.5,90.0 720.0,90.0" fill="none" stroke="#333" stroke-width="1.5" marker-end="url(#arrowhead)" />
<polyline points="605.0,160.0 662.5,160.0 662.5,230.0 720.0,230.0" fill="none" stroke="#333" stroke-width="1.5" marker-end="url(#arrowhead)" />
<polyline points="840.0,90.0 897.5,90.0 897.5,160.0 955.0,160.0" fill="none" stroke="#333" stroke-width="1.5" marker-end="url(#arrowhead)" />
<polyline points="840.0,230.0 897.5,230.0 897.5,160.0 955.0,160.0" fill="none" stroke="#333" stroke-width="1.5" marker-end="url(#arrowhead)" />
<polyline points="1005.0,160.0 1062.5,160.0 1062.5,360.0 1120.0,360.0" fill="none" stroke="#333" stroke-width="1.5" marker-end="url(#arrowhead)" />
<polyline points="1240.0,360.0 1355.0,360.0" fill="none" stroke="#333" stroke-width="1.5" marker-end="url(#arrowhead)" />
<polyline points="1405.0,360.0 1462.5,360.0 1462.5,290.0 1520.0,290.0" fill="none" stroke="#333" stroke-width="1.5" marker-end="url(#arrowhead)" />
<polyline points="1405.0,360.0 1462.5,360.0 1462.5,430.0 1520.0,430.0" fill="none" stroke="#333" stroke-width="1.5" marker-end="url(#arrowhead)" />
<polyline points="1640.0,290.0 1697.5,290.0 1697.5,360.0 1755.0,360.0" fill="none" stroke="#333" stroke-width="1.5" marker-end="url(#arrowhead)" />
<polyline points="1640.0,430.0 1697.5,430.0 1697.5,360.0 1755.0,360.0" fill="none" stroke="#333" stroke-width="1.5" marker-end="url(#arrowhead)" />
<polyline points="1805.0,360.0 1862.5,360.0 1862.5,560.0 1920.0,560.0" fill="none" stroke="#333" stroke-width="1.5" marker-end="url(#arrowhead)" />
<polyline points="2040.0,560.0 2080.0,560.0 2080.0,160.0 2120.0,160.0" fill="none" stroke="#333" stroke-width="1.5" marker-end="url(#arrowhead)" />
<polyline points="2240.0,160.0 2362.0,160.0" fill="none" stroke="#333" stroke-width="1.5" marker-end="url(#arrowhead)" />
<circle cx="180.0" cy="160.0" r="18.0" fill="#e8f5e9" stroke="#4caf50" stroke-width="2" />
<text x="180.0" y="192.0" text-anchor="middle" font-size="10" fill="#333">Запрос клиента на скидку более 5% от пр…</text>
<rect x="320.0" y="120.0" width="120.0" height="80.0" rx="8" ry="8" fill="#e3f2fd" stroke="#1976d2" stroke-width="1.5" />
<text x="380.0" y="153.0" text-anchor="middle" font-size="11" fill="#333">Формирование</text>
<text x="380.0" y="167.0" text-anchor="middle" font-size="11" fill="#333">запроса на скидку</text>
<polygon points="580.0,135.0 605.0,160.0 580.0,185.0 555.0,160.0" fill="#fff3e0" stroke="#ff9800" stroke-width="2" />
<text x="580.0" y="165.0" text-anchor="middle" font-size="14" font-weight="bold" fill="#e65100">X</text>
<text x="580.0" y="199.0" text-anchor="middle" font-size="9" fill="#666">Руководитель оценивает объём заказ…</text>
<rect x="720.0" y="50.0" width="120.0" height="80.0" rx="8" ry="8" fill="#e3f2fd" stroke="#1976d2" stroke-width="1.5" />
<text x="780.0" y="76.0" text-anchor="middle" font-size="11" fill="#333">Передача</text>
<text x="780.0" y="90.0" text-anchor="middle" font-size="11" fill="#333">коммерческому</text>
<text x="780.0" y="104.0" text-anchor="middle" font-size="11" fill="#333">директ…</text>
<rect x="720.0" y="190.0" width="120.0" height="80.0" rx="8" ry="8" fill="#e3f2fd" stroke="#1976d2" stroke-width="1.5" />
<text x="780.0" y="223.0" text-anchor="middle" font-size="11" fill="#333">Отклонение заявки,</text>
<text x="780.0" y="237.0" text-anchor="middle" font-size="11" fill="#333">уведомлени…</text>
<polygon points="980.0,135.0 1005.0,160.0 980.0,185.0 955.0,160.0" fill="#fff3e0" stroke="#ff9800" stroke-width="2" />
<text x="980.0" y="165.0" text-anchor="middle" font-size="14" font-weight="bold" fill="#e65100">X</text>
<rect x="1120.0" y="320.0" width="120.0" height="80.0" rx="8" ry="8" fill="#e3f2fd" stroke="#1976d2" stroke-width="1.5" />
<text x="1180.0" y="346.0" text-anchor="middle" font-size="11" fill="#333">Рассмотрение</text>
<text x="1180.0" y="360.0" text-anchor="middle" font-size="11" fill="#333">руководителем</text>
<text x="1180.0" y="374.0" text-anchor="middle" font-size="11" fill="#333">отдела</text>
<polygon points="1380.0,335.0 1405.0,360.0 1380.0,385.0 1355.0,360.0" fill="#fff3e0" stroke="#ff9800" stroke-width="2" />
<text x="1380.0" y="365.0" text-anchor="middle" font-size="14" font-weight="bold" fill="#e65100">X</text>
<text x="1380.0" y="399.0" text-anchor="middle" font-size="9" fill="#666">Коммерческий директор оценивает вл…</text>
<rect x="1520.0" y="250.0" width="120.0" height="80.0" rx="8" ry="8" fill="#e3f2fd" stroke="#1976d2" stroke-width="1.5" />
<text x="1580.0" y="283.0" text-anchor="middle" font-size="11" fill="#333">Уведомление</text>
<text x="1580.0" y="297.0" text-anchor="middle" font-size="11" fill="#333">менеджера, примен…</text>
<rect x="1520.0" y="390.0" width="120.0" height="80.0" rx="8" ry="8" fill="#e3f2fd" stroke="#1976d2" stroke-width="1.5" />
<text x="1580.0" y="423.0" text-anchor="middle" font-size="11" fill="#333">Предложение</text>
<text x="1580.0" y="437.0" text-anchor="middle" font-size="11" fill="#333">альтернативных ус…</text>
<polygon points="1780.0,335.0 1805.0,360.0 1780.0,385.0 1755.0,360.0" fill="#fff3e0" stroke="#ff9800" stroke-width="2" />
<text x="1780.0" y="365.0" text-anchor="middle" font-size="14" font-weight="bold" fill="#e65100">X</text>
<rect x="1920.0" y="520.0" width="120.0" height="80.0" rx="8" ry="8" fill="#e3f2fd" stroke="#1976d2" stroke-width="1.5" />
<text x="1980.0" y="546.0" text-anchor="middle" font-size="11" fill="#333">Согласование</text>
<text x="1980.0" y="560.0" text-anchor="middle" font-size="11" fill="#333">коммерческим</text>
<text x="1980.0" y="574.0" text-anchor="middle" font-size="11" fill="#333">директором</text>
<rect x="2120.0" y="120.0" width="120.0" height="80.0" rx="8" ry="8" fill="#e3f2fd" stroke="#1976d2" stroke-width="1.5" />
<text x="2180.0" y="146.0" text-anchor="middle" font-size="11" fill="#333">Уведомление</text>
<text x="2180.0" y="160.0" text-anchor="middle" font-size="11" fill="#333">менеджера о</text>
<text x="2180.0" y="174.0" text-anchor="middle" font-size="11" fill="#333">решении</text>
<circle cx="2380.0" cy="160.0" r="18.0" fill="#ffebee" stroke="#f44336" stroke-width="3" />
<text x="2380.0" y="192.0" text-anchor="middle" font-size="10" fill="#333">Утверждённая или отклонённая скидка с з…</text>
</svg>